<svg width="95" height="61" fill="none" xmlns="http://www.w3.org/2000/svg"><g opacity=".1" fill="#000"><path d="M87.975 25.476l-2.435-9.84a1.484 1.484 0 001.165-1.455v-1.587c0-3.445-2.773-6.247-6.183-6.247h-11.09V3.074C69.432 1.38 68.068 0 66.39 0H9.86C8.182 0 6.817 1.379 6.817 3.074v26.973c0 .822.66 1.488 1.472 1.488a1.48 1.48 0 001.473-1.488V3.074c0-.055.043-.099.098-.099h56.53c.054 0 .098.044.098.1v26.973c0 .82.659 1.487 1.472 1.487a1.48 1.48 0 001.472-1.488v-1.686h17.375c2.137.002 3.951 1.42 4.574 3.372h-4.578a1.48 1.48 0 00-1.472 1.488v3.173c0 2.57 2.07 4.66 4.613 4.66h1.668V47.6h-3.849c-1.264-3.689-4.735-6.346-8.811-6.346s-7.547 2.657-8.811 6.346h-.709V36.394a1.48 1.48 0 00-1.472-1.488 1.48 1.48 0 00-1.472 1.488v11.205H35.944c-1.265-3.689-4.736-6.346-8.811-6.346-4.076 0-7.547 2.657-8.811 6.346H9.86a.099.099 0 01-.098-.099v-3.272h6.379a1.48 1.48 0 001.472-1.488 1.48 1.48 0 00-1.472-1.488H2.008A1.48 1.48 0 00.536 42.74c0 .822.66 1.488 1.472 1.488h4.81V47.5c0 1.695 1.364 3.074 3.042 3.074h7.952c0 .033-.003.066-.003.1 0 5.194 4.183 9.42 9.324 9.42 5.14 0 9.323-4.226 9.323-9.42l-.002-.1H69.63c0 .033-.003.066-.003.1 0 5.194 4.183 9.42 9.324 9.42 5.14 0 9.323-4.226 9.323-9.42l-.002-.1h4.811a1.48 1.48 0 001.473-1.487V33.22c0-3.917-2.86-7.172-6.582-7.744zM69.432 9.32h11.09c1.786 0 3.24 1.468 3.24 3.273v.099h-14.33V9.32zm0 16.065v-9.718h13.081l2.405 9.718H69.432zm-42.3 31.733c-3.517 0-6.379-2.892-6.379-6.446s2.862-6.445 6.38-6.445c3.517 0 6.38 2.891 6.38 6.445 0 3.554-2.863 6.446-6.38 6.446zm51.82 0c-3.517 0-6.38-2.892-6.38-6.446s2.863-6.445 6.38-6.445c3.518 0 6.38 2.891 6.38 6.445 0 3.554-2.862 6.446-6.38 6.446zm12.66-19.04h-1.668a1.68 1.68 0 01-1.668-1.686v-1.685h3.336v3.371z"/><path d="M27.133 47.6c-1.677 0-3.042 1.379-3.042 3.074 0 1.695 1.365 3.074 3.042 3.074 1.678 0 3.043-1.379 3.043-3.074 0-1.695-1.365-3.074-3.043-3.074zm51.819 0c-1.678 0-3.043 1.379-3.043 3.074 0 1.695 1.365 3.074 3.043 3.074 1.677 0 3.042-1.379 3.042-3.074 0-1.695-1.365-3.074-3.042-3.074zm-17.273-6.347H39.695a1.48 1.48 0 00-1.472 1.488 1.48 1.48 0 001.472 1.487h21.984a1.48 1.48 0 001.472-1.487 1.48 1.48 0 00-1.472-1.488zm-37.687-6.348H5.148a1.48 1.48 0 00-1.472 1.488c0 .821.66 1.487 1.472 1.487h18.844a1.48 1.48 0 001.472-1.487 1.48 1.48 0 00-1.472-1.488z"/></g></svg>