<svg width="16" height="14" fill="none" xmlns="http://www.w3.org/2000/svg"><path fill-rule="evenodd" clip-rule="evenodd" d="M15.424 2.027a.577.577 0 00-.415-.17H3.92a6.233 6.233 0 00-.041-.228l-.051-.264a1.542 1.542 0 00-.07-.237.709.709 0 00-.12-.22.588.588 0 00-.447-.196H.828a.577.577 0 00-.415.17.543.543 0 00-.175.403c0 .155.058.29.175.402.117.114.255.17.415.17h1.884l1.634 7.367-.19.34c-.114.203-.204.38-.272.532a.96.96 0 00-.101.354c0 .155.058.29.175.403.117.113.255.17.415.17h.582a1.156 1.156 0 00-.82.335 1.09 1.09 0 00-.345.81c0 .317.115.587.346.81.23.224.51.336.835.336.327 0 .605-.112.836-.336.23-.223.346-.493.346-.81 0-.316-.115-.586-.346-.81-.227-.22-.5-.331-.819-.335h8.239c-.32.004-.592.116-.82.335a1.09 1.09 0 00-.345.81c0 .317.115.587.346.81.23.224.51.336.835.336.326 0 .605-.112.836-.336.23-.223.346-.493.346-.81 0-.316-.115-.586-.346-.81-.227-.22-.5-.331-.819-.335h.567c.16 0 .298-.057.415-.17a.542.542 0 00.176-.403.542.542 0 00-.176-.403.577.577 0 00-.415-.17H5.333c.148-.286.222-.477.222-.573a.94.94 0 00-.023-.197 7.859 7.859 0 00-.055-.237 2.207 2.207 0 01-.042-.192l9.638-1.092a.579.579 0 00.379-.192.555.555 0 00.148-.38V2.43a.543.543 0 00-.176-.403z" fill="#fff"/></svg>