<svg width="26" height="32" fill="none" xmlns="http://www.w3.org/2000/svg"><path d="M25.301 5.879c-1.208 0-2.104-.346-2.66-1.027-.99-1.209-.668-3.13-.663-3.16a.533.533 0 00-.085-.395.511.511 0 00-.336-.215C21.295 1.037 15.113 0 12.949 0 10.784 0 4.602 1.037 4.34 1.082a.513.513 0 00-.336.215.534.534 0 00-.085.396c.003.019.33 1.947-.662 3.159-.557.68-1.453 1.027-2.661 1.027a.519.519 0 00-.513.524v7.174c0 2.152.182 5.398 1.763 8.739 1.994 4.217 5.665 7.462 10.909 9.645a.505.505 0 00.387 0c5.244-2.182 8.915-5.427 10.91-9.645 1.58-3.34 1.762-6.587 1.762-8.74V6.404c0-.29-.23-.525-.513-.524zm-.513 7.698c0 3.052 0 12.304-11.84 17.33-11.84-5.026-11.84-14.279-11.84-17.33V6.908c1.28-.096 2.267-.563 2.941-1.39.938-1.151.989-2.682.938-3.481 1.52-.248 6.218-.989 7.961-.989 1.744 0 6.442.741 7.961.989-.05.799 0 2.33.939 3.481.674.827 1.661 1.294 2.94 1.39v6.67zm-3.62-7.48a5.336 5.336 0 01-1.118-2.889.52.52 0 00-.434-.464c-1.9-.296-5.295-.794-6.668-.794-1.373 0-4.766.498-6.667.794a.52.52 0 00-.433.464 5.342 5.342 0 01-1.12 2.889 4.544 4.544 0 01-2.357 1.506.523.523 0 00-.378.506v5.468c0 2.822 0 11.41 10.748 16.257a.5.5 0 00.415 0C23.903 24.986 23.903 16.4 23.903 13.577V8.108a.522.522 0 00-.377-.506 4.55 4.55 0 01-2.358-1.506zm1.709 7.48c0 2.636 0 10.616-9.928 15.204-9.93-4.588-9.93-12.57-9.93-15.204V8.495a5.568 5.568 0 002.5-1.728A6.234 6.234 0 006.816 3.72c1.671-.255 4.881-.723 6.131-.723s4.461.467 6.132.722a6.23 6.23 0 001.3 3.046 5.567 5.567 0 002.497 1.728v5.083zM18.51 10.48a1.597 1.597 0 00-1.15.486l-6.404 6.542-2.42-2.472a1.599 1.599 0 00-1.149-.486c-.657 0-1.25.404-1.502 1.025a1.687 1.687 0 00.353 1.81l3.569 3.646a1.601 1.601 0 002.299 0l7.554-7.716c.465-.475.604-1.19.352-1.81a1.626 1.626 0 00-1.502-1.025zm.424 2.093L11.38 20.29a.606.606 0 01-.848 0l-3.569-3.645a.623.623 0 01-.13-.668.6.6 0 01.554-.378.59.59 0 01.424.18l2.782 2.842a.508.508 0 00.726 0l6.767-6.912a.604.604 0 01.849 0 .62.62 0 010 .865h-.001z" fill="#000"/></svg>